<?xml version="1.0" encoding="UTF-8"?>
<svg id="katman_1" xmlns="http://www.w3.org/2000/svg" version="1.1" viewBox="0 0 150 80">
  <!-- Generator: Adobe Illustrator 30.3.0, SVG Export Plug-In . SVG Version: 2.1.3 Build 182)  -->
  <defs>
    <style>
      .st0 {
        fill: #ff483d;
      }

      .st1, .st2 {
        fill: #0f2537;
      }

      .st2 {
        font-family: Montserrat-Bold, Montserrat;
        font-size: 21.2px;
        font-weight: 700;
        isolation: isolate;
      }
    </style>
  </defs>
  <text class="st2" transform="translate(15.5 70.3)"><tspan x="0" y="0">MyExpress</tspan></text>
  <path class="st0" d="M40.2,23.9h6.4c.7,0,1.2.7,1.2,1.6h0c0,.9-.5,1.6-1.2,1.6h-6.4c-.7,0-1.2-.7-1.2-1.6h0c0-.9.5-1.6,1.2-1.6Z"/>
  <path class="st0" d="M37.1,18.1h10.9c.8,0,1.4.7,1.4,1.6h0c0,.9-.6,1.6-1.4,1.6h-10.9c-.8,0-1.4-.7-1.4-1.6h0c0-.9.6-1.6,1.4-1.6Z"/>
  <path class="st0" d="M37.5,29.4h8.4c.6,0,1.2.7,1.2,1.6h0c0,.9-.5,1.6-1.2,1.6h-8.4c-.6,0-1.2-.7-1.2-1.6h0c0-.9.5-1.6,1.2-1.6Z"/>
  <path class="st0" d="M70.3,14.7s0,0-.1,0h-18.2c-.1,0-.3,0-.4,0,0,0,0,0,0,0,0,0-.2,0-.3.1,0,0,0,0,0,0,0,0-.1,0-.2.1,0,0,0,0-.1.1,0,0,0,0,0,0-.4.4-.5.9-.5.9l-2.8,11.6-.3,1.2v.2c0,0,0,.1-.1.2,0,0,0,0,0,.1h0c0,.2,0,.3,0,.3,0,.6,0,1.4.6,1.4h15.5s0,0,0,0,0,0,0,0h.5c.1,0,.2,0,.3,0,0,0,.1,0,.2,0,2.5-.2,3.5-2.2,3.9-3.3.2-.4.2-.6.2-.6,0,0,0-.4.2-.7,0-.1,0-.2,0-.2l1.5-6.4h0c.1-.6.3-1.1.4-1.6.1-.6.2-1,.3-1.4l.3-1.4s.2-.6-.8-.7Z"/>
  <path class="st1" d="M105.2,38.8l-.4-1.1c-.4-1-1.1-1.7-1.9-2.4-.9-.8-2.2-1.4-3.4-1.6-1.1-.2-2.2,0-3.3,0l-.6-2.2h1.3c1.7-.3,3.5,0,4.9,1.1l1.3.9,1.2-1.3c0-.3-.3-.5-.6-.7-1.8-1.6-4.2-2.4-6.7-2.2l-2.2.3-1-2.5c1.3,0,2.7-.7,3.2-1.8.9-1.8.5-4-1.2-5.1-1-.7-2.4-.6-3.4,0l-.8.5c-.7.4-1.5.5-2.2.2l-1.3-.6c-.8-.3-1.7-.4-2.5-.5-1.3-2-3.5-3.2-5.7-4.3,0-.2,0-.6.4-.5,1.3,0,2.6.3,3.9,0,1.9-.3,3.4-2.1,4.1-3.9h1.3v-1c0-.3,0-.6-.4-.6h-.6c0-.7-.1-1.2-.4-1.8-.7-1.8-2.4-3.2-4.4-3.5-2.9-.4-5.7,1.4-6.3,4.2-.2.9-.2,1.9,0,2.8.2.8.6,1.6,1,2.3.4.7.2,1.4,0,1.4-.3.2-1.4-.3-2.4,1-.9,1.3-1.7,2.6-2.6,3.9,0,.1-.1.2-.2.3,0,.1-.2.2-.2.4h0c0,.1,0,.1,0,.1v.5s0,0,0,0h0s0,0,0,0h0s0,0,0,0v.2c0,0,0,0,0,0,0,0,0,0,0,.1-.6,1.1-1.2,2.1-1.8,3.2l1.4-6.1.4-2,.3-1.4c0-.5,0-1.1-.3-1.5,0,0,0-.1-.1-.2-.3-.6-1-1-1.7-1h-20.2c-1.1.2-1.9,1-2.2,2.1l-.7,3.1-.8,3.5-.2.8-1.2,4.9v.4c-.1,0-.2.3-.2.3h0c0,.1-.2,1.1-.2,1.1v.3c0,0-.3.8-.3.8-.1.4-.2.7-.1,1.1,0,.2,0,.4,0,.6,0,.2.2.4.3.5,0,0,.1.1.2.2.5.5,1.2.7,2,.7h7.7c.3,0,.5.5.5.7s-.2.4-.3.5c-.8,1-1.5,2-2.1,3.2-.2.4.8,1,1.4,1.2l.9-1.5c1.1-1.8,2.7-3,4.7-3.8.3-.1.6-.2.9-.3h3.9c.2,0,.3,0,.5,0,1.4.2,2.7.7,3.7,1.6,1.1,1,1.8,2,2.2,3.3.2.7.4,1.5.6,2.3h-1.8c0-.8-.3-1.6-.7-2.3-.2-.3-.4-.7-.6-1-2.1-2.6-5.9-3.1-9-1.8-1.3.6-2.4,1.6-3.3,2.8-.6.9-1.1,1.9-1.1,3-.1,1.3,0,2.6.6,3.7.4.8.9,1.5,1.6,2.1,2,1.8,4.7,2.3,7.2,1.4,2.8-1,4.3-2.8,5-5.6h12.4c.9,0,1.8-.3,2.3-1l3-4.6c.6-.9,1.1-1.8,1.8-2.6.9-1,2.1-1.7,3.3-2.3l.5,2.3c-2.3,1-4.1,3-4.7,5.5-.2.7-.1,1.5,0,2.2.3,2.2,1.6,4,3.6,5,2.7,1.4,5.8,1.3,8.6,0,.9-.5,1.7-1,2.4-1.8,1.5-1.8,2.1-4.2,1.5-6.4h.5ZM70.4,18.2c-.1.5-.2,1-.4,1.6h0l-1.5,6.4s0,0,0,.2c0,.4-.1.6-.2.7,0,0,0,.2-.2.6-.4,1-1.4,3-3.9,3.3,0,0-.1,0-.2,0-.1,0-.2,0-.3,0h-.5s0,0,0,0,0,0,0,0h-15.5c-.6,0-.7-.7-.6-1.4,0,0,0-.1,0-.2h0c0-.2,0-.2,0-.3,0,0,0-.1,0-.2v-.2s.3-1.2.3-1.2l2.8-11.6s.1-.5.5-.9c0,0,0,0,0,0,0,0,0,0,.1-.1,0,0,.1,0,.2-.1,0,0,0,0,0,0,0,0,.2,0,.3-.1,0,0,0,0,0,0,.1,0,.2,0,.4,0h18.2s0,0,.1,0c1,0,.8.7.8.7l-.3,1.4c0,.4-.2.9-.3,1.4ZM61.7,42.1c.2.4.7.8,1.2.8h4.2c.3,0,.5,0,.9,0l-.8,1.4c-.4.7-1.1,1.1-1.8,1.5-2.1,1.2-4.6.4-6.1-1.3-.8-1-1-2.3-.8-3.5,0-1,.7-1.9,1.4-2.6.2-.2.4-.4.6-.5,1.4-1,3.2-1.4,4.8-.9.6.2,1.1.5,1.6.9.7.6,1.1,1.4,1.3,2.3h-5.2c-.4,0-.8.2-1.1.5s-.5.9-.2,1.4ZM83,6.3c2,0,3.5,1.6,3.5,3.5s-1.6,3.5-3.5,3.5-3.5-1.6-3.5-3.5,1.6-3.5,3.5-3.5ZM78.4,40.6h-3.1l2-4.3,1.3-2.5.9-2-3.5-1.5-2.5-1h-.2c0,0-.2-.2-.2-.2h0s0,0,0,0h0s0,0,0,0h0s-1.1-.5-1.1-.5c0-1.1.5-2.2,1.1-3.4,0,0,0,0,0,0,.1-.2.2-.5.4-.8,0-.1.1-.2.2-.4.4-.8,1-1.8,1.4-2.6h0c0,0,.1-.2.1-.3l1-1.7c.5-.9,1-1.8,1.7-2.6,1.7.7,3.7,1.5,4.9,2.7s1.2,1.5,1.8,2.3h2c1.1.3,2.2.9,3,1.9h-7.1c-.8-.8-1.5-1.6-2.3-2.5-1.4,2-2.7,3.9-3.9,6.1l3.3,1.2,4.1,1.4c.2.6-.5,1.9-1,2.6-.8,1.3-1.5,2.6-2.2,3.9l-2,4.1ZM91.3,28.3l-1.9,2.8-.3.4-3.5,5.5-2.2,3.5h-2.5c.6-1.5,1.4-2.9,2.2-4.3,1-1.7,2.5-4.4,2.9-6.2,0-.6,0-1.4-.6-1.6l-1.4-.6-4.5-1.6c.2-.4.5-.9.8-1.2l1.2.8h9.3l.5,1.6s0,0,0,0h0s.2.6,0,.9ZM92.6,23.4c0-.8.7-1.4,1.4-1.3.6,0,1,.4,1.3.9.3.5.2,1.2,0,1.7-.4.6-1.3.9-1.8.3h-.1c-.4-.5-.7-1.1-.7-1.6ZM103,41.5h0c-.2,1.2-.8,2.1-1.6,2.8-2.4,2.1-6.2,2.2-8.4,0-.8-.8-1.2-1.9-1.3-3,0-2,1.2-3.7,2.9-4.6l1.5,4.7c.2.8.8,1.1,1.6,1.1s1.7-.6,1.5-1.5l-1.3-4c0-.4-.4-.7-.3-1.1,2.2,0,4.2.9,5.2,2.8.4.9.4,1.8.3,2.8Z"/>
</svg>